<?xml version="1.0" encoding="utf-8" standalone="no"?>
<!DOCTYPE svg PUBLIC "-//W3C//DTD SVG 1.1//EN"
  "http://www.w3.org/Graphics/SVG/1.1/DTD/svg11.dtd">
<!-- Created with matplotlib (https://matplotlib.org/) -->
<svg height="338.4pt" version="1.1" viewBox="0 0 378.029267 338.4" width="378.029267pt" xmlns="http://www.w3.org/2000/svg" xmlns:xlink="http://www.w3.org/1999/xlink">
 <metadata>
  <rdf:RDF xmlns:cc="http://creativecommons.org/ns#" xmlns:dc="http://purl.org/dc/elements/1.1/" xmlns:rdf="http://www.w3.org/1999/02/22-rdf-syntax-ns#">
   <cc:Work>
    <dc:type rdf:resource="http://purl.org/dc/dcmitype/StillImage"/>
    <dc:date>2023-11-30T18:05:13.952013</dc:date>
    <dc:format>image/svg+xml</dc:format>
    <dc:creator>
     <cc:Agent>
      <dc:title>Matplotlib v3.3.4, https://matplotlib.org/</dc:title>
     </cc:Agent>
    </dc:creator>
   </cc:Work>
  </rdf:RDF>
 </metadata>
 <defs>
  <style type="text/css">*{stroke-linecap:butt;stroke-linejoin:round;}</style>
 </defs>
 <g id="figure_1">
  <g id="patch_1">
   <path d="M 0 338.4 
L 378.029267 338.4 
L 378.029267 0 
L 0 0 
z
" style="fill:#ffffff;"/>
  </g>
  <g id="axes_1">
   <g id="patch_2">
    <path d="M 10.829267 331.2 
L 370.829267 331.2 
L 370.829267 7.2 
L 10.829267 7.2 
z
" style="fill:#ffffff;"/>
   </g>
   <g id="matplotlib.axis_1">
    <g id="xtick_1">
     <g id="line2d_1">
      <defs>
       <path d="M 0 0 
L 0 3.5 
" id="m80397ac7ed" style="stroke:#000000;stroke-width:0.8;"/>
      </defs>
      <g>
       <use style="stroke:#000000;stroke-width:0.8;" x="17.752344" xlink:href="#m80397ac7ed" y="169.2"/>
      </g>
     </g>
     <g id="text_1">
      <!-- −10 -->
      <g transform="translate(7.2 183.798437)scale(0.1 -0.1)">
       <defs>
        <path d="M 10.59375 35.5 
L 73.1875 35.5 
L 73.1875 27.203125 
L 10.59375 27.203125 
z
" id="DejaVuSans-8722"/>
        <path d="M 12.40625 8.296875 
L 28.515625 8.296875 
L 28.515625 63.921875 
L 10.984375 60.40625 
L 10.984375 69.390625 
L 28.421875 72.90625 
L 38.28125 72.90625 
L 38.28125 8.296875 
L 54.390625 8.296875 
L 54.390625 0 
L 12.40625 0 
z
" id="DejaVuSans-49"/>
        <path d="M 31.78125 66.40625 
Q 24.171875 66.40625 20.328125 58.90625 
Q 16.5 51.421875 16.5 36.375 
Q 16.5 21.390625 20.328125 13.890625 
Q 24.171875 6.390625 31.78125 6.390625 
Q 39.453125 6.390625 43.28125 13.890625 
Q 47.125 21.390625 47.125 36.375 
Q 47.125 51.421875 43.28125 58.90625 
Q 39.453125 66.40625 31.78125 66.40625 
z
M 31.78125 74.21875 
Q 44.046875 74.21875 50.515625 64.515625 
Q 56.984375 54.828125 56.984375 36.375 
Q 56.984375 17.96875 50.515625 8.265625 
Q 44.046875 -1.421875 31.78125 -1.421875 
Q 19.53125 -1.421875 13.0625 8.265625 
Q 6.59375 17.96875 6.59375 36.375 
Q 6.59375 54.828125 13.0625 64.515625 
Q 19.53125 74.21875 31.78125 74.21875 
z
" id="DejaVuSans-48"/>
       </defs>
       <use xlink:href="#DejaVuSans-8722"/>
       <use x="83.789062" xlink:href="#DejaVuSans-49"/>
       <use x="147.412109" xlink:href="#DejaVuSans-48"/>
      </g>
     </g>
    </g>
    <g id="xtick_2">
     <g id="line2d_2">
      <g>
       <use style="stroke:#000000;stroke-width:0.8;" x="104.290805" xlink:href="#m80397ac7ed" y="169.2"/>
      </g>
     </g>
     <g id="text_2">
      <!-- −5 -->
      <g transform="translate(96.919712 183.798437)scale(0.1 -0.1)">
       <defs>
        <path d="M 10.796875 72.90625 
L 49.515625 72.90625 
L 49.515625 64.59375 
L 19.828125 64.59375 
L 19.828125 46.734375 
Q 21.96875 47.46875 24.109375 47.828125 
Q 26.265625 48.1875 28.421875 48.1875 
Q 40.625 48.1875 47.75 41.5 
Q 54.890625 34.8125 54.890625 23.390625 
Q 54.890625 11.625 47.5625 5.09375 
Q 40.234375 -1.421875 26.90625 -1.421875 
Q 22.3125 -1.421875 17.546875 -0.640625 
Q 12.796875 0.140625 7.71875 1.703125 
L 7.71875 11.625 
Q 12.109375 9.234375 16.796875 8.0625 
Q 21.484375 6.890625 26.703125 6.890625 
Q 35.15625 6.890625 40.078125 11.328125 
Q 45.015625 15.765625 45.015625 23.390625 
Q 45.015625 31 40.078125 35.4375 
Q 35.15625 39.890625 26.703125 39.890625 
Q 22.75 39.890625 18.8125 39.015625 
Q 14.890625 38.140625 10.796875 36.28125 
z
" id="DejaVuSans-53"/>
       </defs>
       <use xlink:href="#DejaVuSans-8722"/>
       <use x="83.789062" xlink:href="#DejaVuSans-53"/>
      </g>
     </g>
    </g>
    <g id="xtick_3">
     <g id="line2d_3">
      <g>
       <use style="stroke:#000000;stroke-width:0.8;" x="190.829267" xlink:href="#m80397ac7ed" y="169.2"/>
      </g>
     </g>
    </g>
    <g id="xtick_4">
     <g id="line2d_4">
      <g>
       <use style="stroke:#000000;stroke-width:0.8;" x="277.367728" xlink:href="#m80397ac7ed" y="169.2"/>
      </g>
     </g>
     <g id="text_3">
      <!-- 5 -->
      <g transform="translate(274.186478 183.798437)scale(0.1 -0.1)">
       <use xlink:href="#DejaVuSans-53"/>
      </g>
     </g>
    </g>
    <g id="xtick_5">
     <g id="line2d_5">
      <g>
       <use style="stroke:#000000;stroke-width:0.8;" x="363.90619" xlink:href="#m80397ac7ed" y="169.2"/>
      </g>
     </g>
     <g id="text_4">
      <!-- 10 -->
      <g transform="translate(357.54369 183.798437)scale(0.1 -0.1)">
       <use xlink:href="#DejaVuSans-49"/>
       <use x="63.623047" xlink:href="#DejaVuSans-48"/>
      </g>
     </g>
    </g>
    <g id="xtick_6">
     <g id="line2d_6">
      <defs>
       <path d="M 0 0 
L 0 2 
" id="mf1705fb51c" style="stroke:#000000;stroke-width:0.6;"/>
      </defs>
      <g>
       <use style="stroke:#000000;stroke-width:0.6;" x="35.060036" xlink:href="#mf1705fb51c" y="169.2"/>
      </g>
     </g>
    </g>
    <g id="xtick_7">
     <g id="line2d_7">
      <g>
       <use style="stroke:#000000;stroke-width:0.6;" x="52.367728" xlink:href="#mf1705fb51c" y="169.2"/>
      </g>
     </g>
    </g>
    <g id="xtick_8">
     <g id="line2d_8">
      <g>
       <use style="stroke:#000000;stroke-width:0.6;" x="69.675421" xlink:href="#mf1705fb51c" y="169.2"/>
      </g>
     </g>
    </g>
    <g id="xtick_9">
     <g id="line2d_9">
      <g>
       <use style="stroke:#000000;stroke-width:0.6;" x="86.983113" xlink:href="#mf1705fb51c" y="169.2"/>
      </g>
     </g>
    </g>
    <g id="xtick_10">
     <g id="line2d_10">
      <g>
       <use style="stroke:#000000;stroke-width:0.6;" x="121.598498" xlink:href="#mf1705fb51c" y="169.2"/>
      </g>
     </g>
    </g>
    <g id="xtick_11">
     <g id="line2d_11">
      <g>
       <use style="stroke:#000000;stroke-width:0.6;" x="138.90619" xlink:href="#mf1705fb51c" y="169.2"/>
      </g>
     </g>
    </g>
    <g id="xtick_12">
     <g id="line2d_12">
      <g>
       <use style="stroke:#000000;stroke-width:0.6;" x="156.213882" xlink:href="#mf1705fb51c" y="169.2"/>
      </g>
     </g>
    </g>
    <g id="xtick_13">
     <g id="line2d_13">
      <g>
       <use style="stroke:#000000;stroke-width:0.6;" x="173.521575" xlink:href="#mf1705fb51c" y="169.2"/>
      </g>
     </g>
    </g>
    <g id="xtick_14">
     <g id="line2d_14">
      <g>
       <use style="stroke:#000000;stroke-width:0.6;" x="208.136959" xlink:href="#mf1705fb51c" y="169.2"/>
      </g>
     </g>
    </g>
    <g id="xtick_15">
     <g id="line2d_15">
      <g>
       <use style="stroke:#000000;stroke-width:0.6;" x="225.444651" xlink:href="#mf1705fb51c" y="169.2"/>
      </g>
     </g>
    </g>
    <g id="xtick_16">
     <g id="line2d_16">
      <g>
       <use style="stroke:#000000;stroke-width:0.6;" x="242.752344" xlink:href="#mf1705fb51c" y="169.2"/>
      </g>
     </g>
    </g>
    <g id="xtick_17">
     <g id="line2d_17">
      <g>
       <use style="stroke:#000000;stroke-width:0.6;" x="260.060036" xlink:href="#mf1705fb51c" y="169.2"/>
      </g>
     </g>
    </g>
    <g id="xtick_18">
     <g id="line2d_18">
      <g>
       <use style="stroke:#000000;stroke-width:0.6;" x="294.675421" xlink:href="#mf1705fb51c" y="169.2"/>
      </g>
     </g>
    </g>
    <g id="xtick_19">
     <g id="line2d_19">
      <g>
       <use style="stroke:#000000;stroke-width:0.6;" x="311.983113" xlink:href="#mf1705fb51c" y="169.2"/>
      </g>
     </g>
    </g>
    <g id="xtick_20">
     <g id="line2d_20">
      <g>
       <use style="stroke:#000000;stroke-width:0.6;" x="329.290805" xlink:href="#mf1705fb51c" y="169.2"/>
      </g>
     </g>
    </g>
    <g id="xtick_21">
     <g id="line2d_21">
      <g>
       <use style="stroke:#000000;stroke-width:0.6;" x="346.598498" xlink:href="#mf1705fb51c" y="169.2"/>
      </g>
     </g>
    </g>
   </g>
   <g id="matplotlib.axis_2">
    <g id="ytick_1">
     <g id="line2d_22">
      <defs>
       <path d="M 0 0 
L -3.5 0 
" id="m25670484e6" style="stroke:#000000;stroke-width:0.8;"/>
      </defs>
      <g>
       <use style="stroke:#000000;stroke-width:0.8;" x="190.829267" xlink:href="#m25670484e6" y="255.738462"/>
      </g>
     </g>
     <g id="text_5">
      <!-- −5 -->
      <g transform="translate(169.087079 259.53768)scale(0.1 -0.1)">
       <use xlink:href="#DejaVuSans-8722"/>
       <use x="83.789062" xlink:href="#DejaVuSans-53"/>
      </g>
     </g>
    </g>
    <g id="ytick_2">
     <g id="line2d_23">
      <g>
       <use style="stroke:#000000;stroke-width:0.8;" x="190.829267" xlink:href="#m25670484e6" y="169.2"/>
      </g>
     </g>
    </g>
    <g id="ytick_3">
     <g id="line2d_24">
      <g>
       <use style="stroke:#000000;stroke-width:0.8;" x="190.829267" xlink:href="#m25670484e6" y="82.661538"/>
      </g>
     </g>
     <g id="text_6">
      <!-- 5 -->
      <g transform="translate(177.466767 86.460757)scale(0.1 -0.1)">
       <use xlink:href="#DejaVuSans-53"/>
      </g>
     </g>
    </g>
    <g id="ytick_4">
     <g id="line2d_25">
      <defs>
       <path d="M 0 0 
L -2 0 
" id="m5ba86cc428" style="stroke:#000000;stroke-width:0.6;"/>
      </defs>
      <g>
       <use style="stroke:#000000;stroke-width:0.6;" x="190.829267" xlink:href="#m5ba86cc428" y="324.969231"/>
      </g>
     </g>
    </g>
    <g id="ytick_5">
     <g id="line2d_26">
      <g>
       <use style="stroke:#000000;stroke-width:0.6;" x="190.829267" xlink:href="#m5ba86cc428" y="307.661538"/>
      </g>
     </g>
    </g>
    <g id="ytick_6">
     <g id="line2d_27">
      <g>
       <use style="stroke:#000000;stroke-width:0.6;" x="190.829267" xlink:href="#m5ba86cc428" y="290.353846"/>
      </g>
     </g>
    </g>
    <g id="ytick_7">
     <g id="line2d_28">
      <g>
       <use style="stroke:#000000;stroke-width:0.6;" x="190.829267" xlink:href="#m5ba86cc428" y="273.046154"/>
      </g>
     </g>
    </g>
    <g id="ytick_8">
     <g id="line2d_29">
      <g>
       <use style="stroke:#000000;stroke-width:0.6;" x="190.829267" xlink:href="#m5ba86cc428" y="238.430769"/>
      </g>
     </g>
    </g>
    <g id="ytick_9">
     <g id="line2d_30">
      <g>
       <use style="stroke:#000000;stroke-width:0.6;" x="190.829267" xlink:href="#m5ba86cc428" y="221.123077"/>
      </g>
     </g>
    </g>
    <g id="ytick_10">
     <g id="line2d_31">
      <g>
       <use style="stroke:#000000;stroke-width:0.6;" x="190.829267" xlink:href="#m5ba86cc428" y="203.815385"/>
      </g>
     </g>
    </g>
    <g id="ytick_11">
     <g id="line2d_32">
      <g>
       <use style="stroke:#000000;stroke-width:0.6;" x="190.829267" xlink:href="#m5ba86cc428" y="186.507692"/>
      </g>
     </g>
    </g>
    <g id="ytick_12">
     <g id="line2d_33">
      <g>
       <use style="stroke:#000000;stroke-width:0.6;" x="190.829267" xlink:href="#m5ba86cc428" y="151.892308"/>
      </g>
     </g>
    </g>
    <g id="ytick_13">
     <g id="line2d_34">
      <g>
       <use style="stroke:#000000;stroke-width:0.6;" x="190.829267" xlink:href="#m5ba86cc428" y="134.584615"/>
      </g>
     </g>
    </g>
    <g id="ytick_14">
     <g id="line2d_35">
      <g>
       <use style="stroke:#000000;stroke-width:0.6;" x="190.829267" xlink:href="#m5ba86cc428" y="117.276923"/>
      </g>
     </g>
    </g>
    <g id="ytick_15">
     <g id="line2d_36">
      <g>
       <use style="stroke:#000000;stroke-width:0.6;" x="190.829267" xlink:href="#m5ba86cc428" y="99.969231"/>
      </g>
     </g>
    </g>
    <g id="ytick_16">
     <g id="line2d_37">
      <g>
       <use style="stroke:#000000;stroke-width:0.6;" x="190.829267" xlink:href="#m5ba86cc428" y="65.353846"/>
      </g>
     </g>
    </g>
    <g id="ytick_17">
     <g id="line2d_38">
      <g>
       <use style="stroke:#000000;stroke-width:0.6;" x="190.829267" xlink:href="#m5ba86cc428" y="48.046154"/>
      </g>
     </g>
    </g>
    <g id="ytick_18">
     <g id="line2d_39">
      <g>
       <use style="stroke:#000000;stroke-width:0.6;" x="190.829267" xlink:href="#m5ba86cc428" y="30.738462"/>
      </g>
     </g>
    </g>
    <g id="ytick_19">
     <g id="line2d_40">
      <g>
       <use style="stroke:#000000;stroke-width:0.6;" x="190.829267" xlink:href="#m5ba86cc428" y="13.430769"/>
      </g>
     </g>
    </g>
   </g>
   <g id="line2d_41">
    <path clip-path="url(#pe1d9b82124)" d="M 260.060036 169.2 
L 258.804318 167.977651 
L 255.43195 164.999734 
L 252.792276 162.945395 
L 249.322729 160.570515 
L 245.517838 158.347295 
L 243.422183 157.279193 
L 239.92958 155.729657 
L 236.960699 154.628278 
L 233.609251 153.613367 
L 229.971161 152.778281 
L 226.11499 152.192057 
L 221.614457 151.899347 
L 218.644552 151.943466 
L 216.183812 152.129189 
L 212.577293 152.660504 
L 210.676847 153.073251 
L 207.339713 154.043213 
L 205.249885 154.827805 
L 202.786478 155.955434 
L 199.966776 157.569097 
L 197.752092 159.144807 
L 195.711424 160.926368 
L 194.078602 162.68589 
L 192.677554 164.588066 
L 191.785234 166.159439 
L 191.113971 167.813661 
L 190.833748 169.111505 
L 190.829273 169.198953 
L 190.760417 168.656151 
L 190.367211 167.298223 
L 189.712034 165.841518 
L 188.780226 164.283027 
L 187.677909 162.804505 
L 186.263484 161.239579 
L 184.490116 159.616993 
L 182.458741 158.079698 
L 180.839073 157.039876 
L 178.920748 155.980173 
L 176.46233 154.849934 
L 173.754346 153.855749 
L 170.893681 153.051997 
L 168.591805 152.569501 
L 165.485308 152.130289 
L 163.069721 151.946152 
L 159.557639 151.910349 
L 156.919643 152.057431 
L 153.988606 152.391474 
L 151.943603 152.729803 
L 147.861052 153.664074 
L 143.338903 155.108401 
L 140.19531 156.37548 
L 134.921867 159.018514 
L 131.896776 160.851923 
L 127.979821 163.610121 
L 125.588784 165.531058 
L 121.034101 169.771375 
L 118.046662 173.046184 
L 114.734684 177.256576 
L 113.23937 179.404376 
L 111.612729 181.955979 
L 108.718679 187.208939 
L 107.367032 190.083445 
L 105.02206 196.061548 
L 104.123133 198.861861 
L 103.184237 202.288982 
L 102.00864 207.905519 
L 101.482869 211.491896 
L 101.036702 216.388992 
L 100.904589 222.305026 
L 101.037609 225.890542 
L 101.255363 228.718621 
L 101.993264 234.391869 
L 102.567929 237.491349 
L 103.264761 240.585902 
L 104.960143 246.537277 
L 106.13214 249.899319 
L 107.321265 252.915641 
L 109.654101 258.036643 
L 112.197223 262.787537 
L 114.488572 266.542144 
L 117.085737 270.342257 
L 119.77855 273.876593 
L 123.238298 277.930825 
L 127.325783 282.149877 
L 131.605604 286.026414 
L 135.797403 289.374335 
L 140.364085 292.588079 
L 144.83773 295.351614 
L 148.135242 297.168939 
L 151.509569 298.850624 
L 156.246877 300.92868 
L 161.499534 302.873069 
L 164.856108 303.929141 
L 168.738541 304.977731 
L 172.8202 305.887079 
L 178.278683 306.804191 
L 183.279096 307.352223 
L 189.368409 307.649978 
L 192.794955 307.640606 
L 198.373044 307.352748 
L 204.188674 306.689497 
L 210.289005 305.586147 
L 216.071801 304.140445 
L 221.159041 302.530813 
L 226.342408 300.545438 
L 230.983857 298.450658 
L 234.914105 296.424083 
L 238.752479 294.202181 
L 242.988992 291.444516 
L 246.01321 289.259871 
L 249.811981 286.230194 
L 253.262541 283.167079 
L 255.874662 280.623206 
L 257.969177 278.424522 
L 261.99375 273.734539 
L 264.961467 269.800131 
L 267.441724 266.11845 
L 269.793668 262.205399 
L 271.381335 259.268582 
L 273.849149 254.064155 
L 275.551938 249.830627 
L 277.04218 245.455172 
L 278.200237 241.358913 
L 279.297674 236.448241 
L 279.751279 233.862151 
L 280.469593 227.98061 
L 280.725833 223.552118 
L 280.663134 217.141459 
L 280.498851 214.651029 
L 279.780118 208.69346 
L 278.905735 204.118778 
L 277.596493 199.066924 
L 276.457129 195.544714 
L 275.357398 192.612798 
L 273.117303 187.568222 
L 272.388651 186.123853 
L 270.670226 183.004207 
L 268.120601 178.961441 
L 264.672621 174.321377 
L 262.51445 171.791614 
L 260.060036 169.2 
L 260.060036 169.2 
" style="fill:none;stroke:#0000ff;stroke-linecap:square;"/>
   </g>
   <g id="line2d_42">
    <path clip-path="url(#pe1d9b82124)" d="M 208.136959 169.2 
L 208.014917 167.148257 
L 207.765004 165.631104 
L 207.325967 163.964057 
L 206.746991 162.404247 
L 205.618067 160.20847 
L 204.358539 158.405788 
L 202.999835 156.894168 
L 201.394243 155.49097 
L 199.549516 154.249633 
L 197.68734 153.309026 
L 195.650163 152.577269 
L 193.46731 152.094535 
L 191.151991 151.895317 
L 189.631462 151.933805 
L 188.164085 152.098742 
L 186.475912 152.448746 
L 184.530321 153.079222 
L 182.463134 154.048629 
L 180.612299 155.229682 
L 178.980365 156.584148 
L 177.331652 158.366228 
L 176.085282 160.135171 
L 175.221843 161.719056 
L 174.439074 163.639623 
L 173.887337 165.660619 
L 173.575837 167.830563 
L 173.522832 169.408658 
L 173.677386 171.517152 
L 174.096575 173.624165 
L 174.666123 175.389427 
L 175.600176 177.423808 
L 176.679084 179.16637 
L 177.651735 180.420912 
L 179.057541 181.887895 
L 180.658298 183.203843 
L 182.386244 184.308659 
L 183.804971 185.018201 
L 185.934028 185.800989 
L 187.925292 186.262331 
L 189.718864 186.472036 
L 191.681524 186.486696 
L 193.285422 186.332528 
L 195.584035 185.841767 
L 197.054339 185.349448 
L 199.187629 184.355659 
L 200.915877 183.264726 
L 202.462282 182.015193 
L 203.821195 180.635297 
L 205.117511 178.96741 
L 206.171417 177.210908 
L 207.015438 175.328954 
L 207.641676 173.310851 
L 207.965828 171.627858 
L 208.136959 169.2 
L 208.136959 169.2 
" style="fill:none;stroke:#000000;stroke-linecap:square;stroke-opacity:0.25;stroke-width:0.25;"/>
   </g>
   <g id="line2d_43">
    <path clip-path="url(#pe1d9b82124)" d="M 225.444651 169.2 
L 225.332288 166.413178 
L 224.904687 163.109797 
L 224.234992 160.129035 
L 223.425077 157.549334 
L 222.301365 154.787092 
L 220.607846 151.55174 
L 219.074056 149.188585 
L 217.089931 146.647786 
L 215.258317 144.675596 
L 213.035268 142.645935 
L 210.574815 140.768711 
L 207.814885 139.038541 
L 205.640615 137.91344 
L 202.230265 136.516027 
L 199.518282 135.692898 
L 196.826013 135.108008 
L 193.617599 134.697101 
L 190.632264 134.585176 
L 188.338647 134.674333 
L 186.032241 134.918614 
L 182.934624 135.496892 
L 181.189463 135.953962 
L 178.014816 137.043901 
L 174.828318 138.504813 
L 172.240402 139.999333 
L 169.741545 141.749447 
L 167.631392 143.50791 
L 165.110076 146.032176 
L 163.645884 147.768982 
L 162.314406 149.575332 
L 160.850717 151.893602 
L 159.29312 154.927779 
L 158.044734 158.09148 
L 157.314451 160.540787 
L 156.701282 163.411607 
L 156.462069 165.062301 
L 156.233891 168.023207 
L 156.243281 170.626336 
L 156.497665 173.623346 
L 157.031165 176.67751 
L 157.636445 179.021479 
L 158.292864 181.015554 
L 159.472856 183.86289 
L 160.755132 186.339756 
L 162.554148 189.168537 
L 164.0915 191.184465 
L 165.711533 193.018571 
L 168.156515 195.356666 
L 169.94801 196.807933 
L 171.759888 198.089161 
L 174.670288 199.812289 
L 177.860437 201.294147 
L 180.50009 202.238356 
L 183.589092 203.049737 
L 185.672067 203.429054 
L 189.041553 203.76919 
L 192.815731 203.758339 
L 195.996485 203.427543 
L 198.263515 203.007644 
L 200.96608 202.297883 
L 203.557743 201.390228 
L 206.305802 200.162909 
L 208.930142 198.705646 
L 211.200957 197.186052 
L 212.994512 195.788094 
L 214.29168 194.650737 
L 216.581186 192.33144 
L 217.921193 190.746517 
L 219.810505 188.129149 
L 221.724899 184.810405 
L 223.011721 181.948117 
L 223.974036 179.182442 
L 224.532309 177.094922 
L 225.001367 174.721996 
L 225.362911 171.57745 
L 225.444651 169.2 
L 225.444651 169.2 
" style="fill:none;stroke:#000000;stroke-linecap:square;stroke-opacity:0.25;stroke-width:0.25;"/>
   </g>
   <g id="line2d_44">
    <path clip-path="url(#pe1d9b82124)" d="M 242.752344 169.2 
L 242.744706 168.30942 
L 242.596162 165.175763 
L 242.519809 164.291462 
L 242.356107 162.797608 
L 242.106099 161.033461 
L 241.926511 159.97625 
L 241.444451 157.619452 
L 241.300524 157.007458 
L 240.654926 154.591455 
L 240.338917 153.553898 
L 239.816455 151.987757 
L 239.276284 150.521337 
L 238.470533 148.552586 
L 238.044507 147.596134 
L 237.056643 145.556065 
L 236.174706 143.90579 
L 235.693059 143.061025 
L 234.376539 140.922076 
L 234.114127 140.522016 
L 232.941996 138.826921 
L 231.812874 137.319758 
L 230.32771 135.497198 
L 229.469075 134.516125 
L 228.282132 133.237675 
L 227.424649 132.365452 
L 226.083922 131.080252 
L 225.559282 130.601659 
L 224.058898 129.302663 
L 223.014166 128.455207 
L 221.316443 127.169797 
L 219.874721 126.160861 
L 218.615257 125.337206 
L 217.493749 124.646534 
L 215.285365 123.397105 
L 214.099739 122.783504 
L 213.278052 122.380581 
L 211.592094 121.60892 
L 210.009704 120.949438 
L 208.057904 120.218575 
L 207.105217 119.89382 
L 204.779813 119.18612 
L 203.284191 118.79285 
L 201.556243 118.397068 
L 200.158414 118.121894 
" style="fill:none;stroke:#000000;stroke-linecap:square;stroke-opacity:0.25;stroke-width:0.25;"/>
   </g>
   <g id="line2d_45">
    <path clip-path="url(#pe1d9b82124)" d="M 196.073079 117.542393 
L 192.081357 117.292022 
L 188.137521 117.346741 
L 184.483927 117.666103 
L 180.33801 118.347867 
L 177.198035 119.098149 
L 174.703045 119.844647 
L 171.847795 120.87082 
L 167.434002 122.846279 
L 163.970065 124.76365 
L 161.234296 126.536859 
L 158.356638 128.684148 
L 155.760847 130.908855 
L 153.496222 133.113303 
L 151.47885 135.324483 
L 148.845863 138.648408 
L 146.247944 142.582119 
L 144.373079 146.00887 
L 142.756945 149.57711 
L 141.823595 152.040454 
L 140.767231 155.423261 
L 140.118421 158.045806 
L 139.418017 161.927498 
L 139.116947 164.526471 
L 138.919774 168.012364 
L 138.937336 170.998175 
L 139.194545 174.66456 
L 139.625483 177.812692 
L 140.347533 181.349095 
L 141.444043 185.234514 
L 142.657016 188.576279 
L 143.43918 190.417578 
L 145.462969 194.45678 
L 147.900209 198.407909 
L 149.227943 200.269852 
L 151.275092 202.837377 
L 152.368929 204.082779 
L 155.66279 207.40111 
L 157.985554 209.415624 
L 161.285476 211.898599 
L 164.895712 214.182848 
L 167.727764 215.700823 
L 171.477652 217.382164 
L 174.814957 218.591779 
L 178.338946 219.598391 
L 180.161584 220.015415 
L 183.712417 220.633028 
L 187.990787 221.045433 
L 191.806612 221.113878 
L 195.131591 220.944526 
L 199.6102 220.3752 
L 203.812715 219.473611 
L 207.481464 218.380385 
L 211.312619 216.912034 
L 214.281091 215.525132 
L 217.767775 213.588317 
L 221.283867 211.253814 
L 223.854953 209.266319 
L 226.093907 207.310511 
L 228.645414 204.78012 
L 231.565079 201.396266 
L 234.285512 197.617612 
L 235.26622 196.058204 
L 237.61495 191.719009 
L 239.233204 187.990019 
L 240.418721 184.591295 
L 241.361163 181.138737 
L 242.123325 177.257637 
L 242.527526 174.026588 
L 242.704432 171.430065 
L 242.752344 169.2 
L 242.752344 169.2 
" style="fill:none;stroke:#000000;stroke-linecap:square;stroke-opacity:0.25;stroke-width:0.25;"/>
   </g>
   <g id="line2d_46">
    <path clip-path="url(#pe1d9b82124)" d="M 260.060036 169.2 
L 259.971236 165.694648 
L 259.824307 163.491779 
L 259.289957 158.902752 
L 258.15647 153.077123 
L 257.314785 149.897789 
L 256.845777 148.350064 
L 255.303 143.980223 
L 253.300139 139.36228 
L 251.029423 135.011689 
L 249.375132 132.25029 
L 246.535375 128.093687 
L 244.560064 125.543376 
L 241.548564 122.078324 
L 238.111014 118.629892 
L 234.661025 115.611975 
L 231.239907 112.987194 
L 227.950638 110.762827 
L 224.59164 108.759934 
L 219.713988 106.282814 
L 216.279883 104.81704 
L 212.750384 103.531408 
L 208.4679 102.253917 
L 203.113367 101.067773 
L 199.392879 100.500917 
L 193.57528 100.023712 
L 189.658269 99.979135 
L 186.660993 100.094827 
L 183.490273 100.359325 
L 180.159014 100.796454 
L 174.733266 101.866367 
L 171.611181 102.690117 
L 166.154884 104.515579 
L 161.500276 106.488679 
L 159.01044 107.714541 
L 155.577942 109.61608 
L 153.667991 110.788195 
L 148.776494 114.204876 
L 145.423468 116.938993 
L 142.334191 119.792238 
L 139.748427 122.470489 
L 137.467168 125.093473 
L 134.433009 129.045778 
L 132.46953 131.957007 
L 131.186601 134.048161 
L 128.971691 138.110778 
L 127.201463 141.91627 
L 125.542957 146.165304 
L 123.776802 151.970188 
L 122.657559 157.136928 
L 122.060478 161.21545 
L 121.809289 163.80166 
L 121.599386 168.84936 
L 121.646026 171.764878 
L 121.928834 175.954978 
L 122.509763 180.395747 
L 123.466346 185.172986 
L 123.906387 186.926465 
L 125.569623 192.310133 
L 127.055755 196.141392 
L 128.653993 199.648888 
L 130.554439 203.25649 
L 132.765774 206.903186 
L 135.318176 210.56929 
L 136.365183 211.938309 
L 140.223323 216.44339 
L 142.410978 218.683014 
L 144.348237 220.507049 
L 148.887445 224.279788 
L 152.501431 226.853069 
L 154.198003 227.945638 
L 157.086652 229.651099 
L 160.290485 231.33117 
L 162.60529 232.416347 
L 167.617876 234.423698 
L 170.362938 235.336441 
L 175.707564 236.759111 
L 179.82318 237.550314 
L 183.81943 238.074971 
L 188.564491 238.393715 
L 192.760384 238.403831 
L 195.785406 238.25314 
L 199.291264 237.911673 
L 203.667281 237.230029 
L 207.113299 236.488407 
L 210.998091 235.427773 
L 212.930539 234.808179 
L 219.026037 232.428487 
L 223.875249 230.034714 
L 227.076446 228.183399 
L 228.928279 227.004539 
L 233.419738 223.779769 
L 236.950046 220.831126 
L 239.283015 218.648293 
L 242.002779 215.828007 
L 245.146899 212.124285 
L 247.833014 208.487049 
L 249.942364 205.235276 
L 252.474755 200.707668 
L 254.283582 196.88482 
L 256.08497 192.321258 
L 257.01666 189.500946 
L 258.345237 184.51317 
L 259.23176 179.876999 
L 259.660165 176.630133 
L 260.036652 170.99925 
L 260.060036 169.2 
L 260.060036 169.2 
" style="fill:none;stroke:#000000;stroke-linecap:square;stroke-opacity:0.25;stroke-width:0.25;"/>
   </g>
   <g id="line2d_47">
    <path clip-path="url(#pe1d9b82124)" d="M 277.367728 169.2 
L 277.144598 162.989609 
L 276.687575 158.371507 
L 276.421575 156.438256 
L 275.236912 150.11454 
L 274.088077 145.601783 
L 272.113623 139.505578 
L 271.008987 136.640549 
L 268.928217 131.924548 
L 266.351688 126.947553 
L 265.557144 125.557707 
L 262.308388 120.41844 
L 261.286796 118.954185 
L 259.02919 115.93016 
L 255.614898 111.826424 
L 251.7213 107.70963 
L 248.651963 104.8149 
L 243.711039 100.698733 
L 240.014822 97.998269 
L 237.731466 96.473876 
L 232.723736 93.478413 
L 227.90982 91.008326 
L 225.037652 89.709801 
L 219.79011 87.651395 
L 216.621186 86.594418 
L 210.364079 84.895217 
L 203.772575 83.63496 
L 202.110707 83.400032 
L 198.249579 82.980256 
L 194.651486 82.745989 
L 189.764682 82.668087 
L 184.678039 82.880433 
L 179.913973 83.352684 
L 177.435701 83.704283 
L 173.889597 84.335679 
L 169.735275 85.271764 
L 165.794849 86.361704 
L 161.383545 87.82522 
L 156.659651 89.693128 
L 153.831825 90.968967 
L 147.536856 94.268882 
L 143.73478 96.598246 
L 141.017265 98.435109 
L 137.388132 101.13422 
L 132.77709 105.021732 
L 128.729884 108.929178 
L 127.967076 109.725213 
L 123.267579 115.122985 
L 120.426186 118.877923 
L 117.654372 123.001081 
L 116.295478 125.227057 
L 113.482651 130.387549 
L 111.06295 135.640499 
L 109.438321 139.798993 
L 108.537427 142.423919 
L 106.853585 148.295691 
L 105.761756 153.312144 
L 104.891364 159.022468 
L 104.573836 162.206723 
L 104.306919 167.530084 
L 104.38536 173.244298 
L 104.807068 178.638569 
L 105.570614 184.027927 
L 105.845616 185.530478 
L 107.189187 191.409062 
L 108.741361 196.594909 
L 109.612239 199.078081 
L 111.484619 203.744641 
L 114.412398 209.812406 
L 116.723007 213.889681 
L 118.548555 216.785754 
L 121.39454 220.850015 
L 124.121239 224.326621 
L 126.19931 226.748883 
L 129.510282 230.264617 
L 133.908285 234.383642 
L 136.985508 236.947731 
L 141.608012 240.377057 
L 145.665963 243.01857 
L 149.80116 245.394486 
L 152.904621 246.985774 
L 156.93694 248.82547 
L 159.973594 250.050682 
L 166.476693 252.2413 
L 170.955896 253.425616 
L 175.846455 254.431571 
L 180.878902 255.164502 
L 186.886656 255.648604 
L 191.717467 255.733903 
L 198.398729 255.406778 
L 201.194676 255.115445 
L 207.254888 254.165312 
L 211.2371 253.297715 
L 216.200409 251.935787 
L 223.106742 249.493648 
L 227.02318 247.806017 
L 231.373118 245.653263 
L 235.356219 243.40415 
L 238.034505 241.729793 
L 240.782395 239.86534 
L 243.670483 237.732556 
L 247.771277 234.365273 
L 249.667654 232.65825 
L 253.101743 229.291963 
L 257.444097 224.439204 
L 260.936822 219.932988 
L 263.367868 216.391701 
L 265.667656 212.652513 
L 267.624098 209.093097 
L 269.998327 204.145174 
L 271.896405 199.482412 
L 272.883495 196.695618 
L 273.955501 193.261057 
L 275.274072 188.120364 
L 276.203716 183.345978 
L 276.552989 181.04689 
L 276.976186 177.422756 
L 277.339753 171.400246 
L 277.367728 169.2 
L 277.367728 169.2 
" style="fill:none;stroke:#000000;stroke-linecap:square;stroke-opacity:0.25;stroke-width:0.25;"/>
   </g>
   <g id="line2d_48">
    <path clip-path="url(#pe1d9b82124)" d="M 294.675421 169.2 
L 294.573344 164.596736 
L 294.281568 160.164232 
L 293.741734 155.305834 
L 292.972297 150.469676 
L 291.691761 144.486019 
L 289.552811 136.986873 
L 287.255496 130.651251 
L 285.329682 126.145439 
L 281.713073 118.959006 
L 279.774381 115.601582 
L 277.885501 112.585198 
L 274.125336 107.185578 
L 271.645066 103.986272 
L 268.153543 99.882037 
L 265.700072 97.238996 
L 260.998884 92.64774 
L 256.841206 89.034873 
L 254.858902 87.442863 
L 251.707155 85.069706 
L 246.13165 81.304209 
L 241.300737 78.443984 
L 235.479516 75.442979 
L 232.751676 74.19192 
L 225.963631 71.477944 
L 218.396385 69.079684 
L 213.111127 67.772477 
L 205.601034 66.409832 
L 204.348588 66.23762 
L 196.831826 65.527473 
L 194.120177 65.406004 
L 190.081481 65.356539 
L 183.650271 65.602289 
L 181.121574 65.808587 
L 174.451447 66.653471 
L 167.506987 68.006646 
L 162.254981 69.362463 
L 159.201108 70.287497 
L 155.557721 71.527375 
L 150.880375 73.345372 
L 146.155551 75.454158 
L 139.756747 78.780857 
L 137.55124 80.062603 
L 134.177977 82.167506 
L 129.979374 85.049455 
L 125.185762 88.732902 
L 122.03092 91.41304 
L 116.772576 96.401441 
L 113.069044 100.371435 
L 108.728814 105.61117 
L 104.47764 111.516205 
L 102.170376 115.129446 
L 100.28111 118.356565 
L 97.768452 123.11629 
L 95.708853 127.533101 
L 94.310384 130.883829 
L 93.064332 134.185129 
L 91.930862 137.527785 
L 90.149767 143.750796 
L 88.74742 150.139042 
L 87.545796 158.404245 
L 87.262623 161.585943 
L 86.984449 168.673233 
L 87.050127 172.930116 
L 87.508262 179.630416 
L 87.882009 182.833994 
L 88.421119 186.421929 
L 89.054141 189.836073 
L 90.251191 195.047134 
L 91.4725 199.403584 
L 92.15595 201.566652 
L 93.672219 205.867857 
L 96.24483 212.069663 
L 99.38034 218.404852 
L 102.520399 223.840346 
L 105.871377 228.917507 
L 109.682832 234.00185 
L 113.305741 238.295055 
L 118.983347 244.181248 
L 120.846567 245.923174 
L 124.715829 249.28144 
L 127.857645 251.774805 
L 133.639566 255.879651 
L 139.410448 259.422662 
L 145.790055 262.770792 
L 147.159317 263.417616 
L 153.230771 266.000706 
L 158.533576 267.896565 
L 162.242345 269.03392 
L 168.203208 270.551296 
L 173.514536 271.592499 
L 179.756036 272.454091 
L 187.263359 272.984912 
L 188.402112 273.017786 
L 192.758931 273.028224 
L 195.954934 272.91958 
L 201.914182 272.452837 
L 208.259532 271.572894 
L 211.881222 270.889915 
L 217.099689 269.668346 
L 222.236446 268.182891 
L 226.509775 266.723971 
L 230.525518 265.159529 
L 237.303335 262.066489 
L 240.141672 260.590975 
L 245.61223 257.420466 
L 250.523078 254.174541 
L 255.72319 250.272821 
L 261.097716 245.661551 
L 265.214276 241.663053 
L 270.99869 235.206722 
L 273.973342 231.418056 
L 276.84552 227.382711 
L 279.810185 222.738956 
L 281.210882 220.338902 
L 284.348931 214.345277 
L 286.108763 210.50183 
L 287.9472 205.971329 
L 290.520016 198.282267 
L 291.054093 196.3847 
L 292.085916 192.245926 
L 292.899432 188.323415 
L 293.628011 183.911961 
L 294.299224 178.031287 
L 294.570179 173.874047 
L 294.675421 169.2 
L 294.675421 169.2 
" style="fill:none;stroke:#000000;stroke-linecap:square;stroke-opacity:0.25;stroke-width:0.25;"/>
   </g>
   <g id="line2d_49">
    <path clip-path="url(#pe1d9b82124)" d="M 311.983113 169.2 
L 311.947605 166.266965 
L 311.66687 160.451969 
L 310.924083 153.21596 
L 309.781979 146.210728 
L 309.369078 144.168668 
L 307.441094 136.337618 
L 305.804048 131.002434 
L 304.496488 127.271283 
L 302.72738 122.755768 
L 300.686665 118.115691 
L 298.50888 113.672031 
L 295.869903 108.82849 
L 291.839708 102.303474 
L 289.363426 98.706923 
L 284.975655 92.945741 
L 279.936203 87.113409 
L 273.836018 80.949596 
L 269.006804 76.644465 
L 264.958303 73.371296 
L 260.889641 70.35771 
L 257.851343 68.27282 
L 252.241031 64.764136 
L 249.847598 63.393143 
L 245.290417 60.976908 
L 240.804938 58.833851 
L 235.940671 56.757945 
L 232.948459 55.603222 
L 224.174661 52.725371 
L 217.873199 51.10309 
L 212.638863 50.025355 
L 209.509924 49.494998 
L 202.064694 48.568248 
L 195.573035 48.13906 
L 187.947096 48.080441 
L 182.783977 48.313575 
L 178.637147 48.661182 
L 173.11614 49.34801 
L 169.795891 49.885912 
L 162.227492 51.47068 
L 159.062131 52.285059 
L 153.286633 54.009701 
L 146.953346 56.270119 
L 140.648642 58.926888 
L 136.26111 61.030824 
L 129.438247 64.751941 
L 126.23045 66.704891 
L 118.482607 72.018648 
L 114.986673 74.721667 
L 109.234464 79.642518 
L 106.585103 82.130056 
L 103.889271 84.821735 
L 99.266553 89.861964 
L 95.991588 93.807235 
L 93.853576 96.577897 
L 90.592289 101.149998 
L 86.68253 107.299179 
L 83.529215 112.942082 
L 80.130422 119.965661 
L 78.049105 124.940657 
L 76.492977 129.131719 
L 74.4231 135.616391 
L 73.443706 139.218595 
L 71.699164 147.148399 
L 71.142721 150.401458 
L 70.368014 156.26396 
L 69.999644 160.342429 
L 69.702287 166.648708 
L 69.680919 170.354191 
L 69.953001 177.396515 
L 70.336399 181.838162 
L 71.208762 188.414301 
L 72.875782 196.86279 
L 74.724447 203.811058 
L 76.335957 208.817376 
L 78.555043 214.727498 
L 81.510694 221.427426 
L 85.146922 228.441003 
L 88.002046 233.268847 
L 91.102507 237.99555 
L 94.219385 242.308038 
L 98.899584 248.112532 
L 100.335369 249.755006 
L 104.212427 253.909961 
L 107.876662 257.501301 
L 110.839538 260.193943 
L 115.312611 263.939058 
L 120.48868 267.843075 
L 124.358598 270.491187 
L 131.004011 274.552709 
L 136.809461 277.644064 
L 140.416049 279.366973 
L 146.960994 282.132852 
L 152.585515 284.159427 
L 158.201011 285.877553 
L 162.86879 287.083274 
L 170.183319 288.581738 
L 174.10999 289.194667 
L 180.520468 289.914469 
L 189.089127 290.341349 
L 192.813118 290.337603 
L 201.308559 289.899788 
L 205.479006 289.464873 
L 212.269866 288.441583 
L 217.214404 287.445841 
L 224.581041 285.557519 
L 229.990175 283.850241 
L 233.089533 282.744372 
L 238.602753 280.537094 
L 243.652732 278.231812 
L 249.981926 274.931818 
L 255.956965 271.359862 
L 260.062408 268.623471 
L 266.596897 263.738461 
L 272.506291 258.682502 
L 275.258391 256.090607 
L 279.292623 251.979762 
L 281.719801 249.307211 
L 285.783966 244.445329 
L 287.87682 241.726043 
L 292.307328 235.385024 
L 296.723935 228.06063 
L 298.172134 225.37618 
L 300.492578 220.699638 
L 301.81969 217.773454 
L 303.54136 213.632402 
L 305.662409 207.821287 
L 307.902076 200.380312 
L 308.665579 197.357735 
L 309.632012 192.9521 
L 310.798429 186.101321 
L 311.288372 182.15602 
L 311.898549 173.725857 
L 311.983113 169.2 
L 311.983113 169.2 
" style="fill:none;stroke:#000000;stroke-linecap:square;stroke-opacity:0.25;stroke-width:0.25;"/>
   </g>
   <g id="line2d_50">
    <path clip-path="url(#pe1d9b82124)" d="M 329.290805 169.2 
L 329.097229 161.880963 
L 328.537624 154.777587 
L 327.471917 146.83074 
L 326.762787 142.862276 
L 325.072884 135.284681 
L 323.419111 129.306006 
L 322.423423 126.135215 
L 320.226553 119.92587 
L 317.088432 112.364968 
L 314.495162 106.923648 
L 311.371222 101.073392 
L 309.516239 97.890813 
L 305.276317 91.267527 
L 301.026683 85.366074 
L 296.019169 79.162885 
L 293.833436 76.670336 
L 288.107777 70.668334 
L 285.269099 67.944305 
L 280.561138 63.74959 
L 274.174381 58.632421 
L 272.951017 57.720783 
L 267.087348 53.630528 
L 260.049731 49.282841 
L 254.825866 46.415502 
L 249.634581 43.846369 
L 242.097358 40.579704 
L 234.410287 37.775906 
L 228.551917 35.976131 
L 221.768207 34.23934 
L 212.64754 32.46829 
L 203.461172 31.315872 
L 194.522017 30.787713 
L 190.749041 30.738485 
L 186.10147 30.819201 
L 178.651822 31.274993 
L 174.432113 31.712797 
L 166.89413 32.822924 
L 161.265212 33.93151 
L 154.17933 35.677044 
L 149.426622 37.073475 
L 144.373569 38.764323 
L 139.129526 40.7526 
L 133.29952 43.255862 
L 130.254595 44.69174 
L 124.577922 47.617283 
L 115.960639 52.725599 
L 112.319288 55.148341 
L 105.461169 60.186764 
L 98.936792 65.626979 
L 94.632601 69.611852 
L 91.255538 72.98841 
L 85.903535 78.855169 
L 82.706561 82.706774 
L 78.037668 88.890269 
L 75.862445 92.036359 
L 73.3725 95.88216 
L 70.203579 101.22176 
L 66.92313 107.403018 
L 63.074108 115.812576 
L 60.265172 123.106457 
L 59.099491 126.551862 
L 56.645401 135.049043 
L 55.083516 141.911014 
L 54.364689 145.768895 
L 53.640176 150.471654 
L 52.981587 156.176379 
L 52.448518 164.470744 
L 52.369237 168.553588 
L 52.498582 175.218246 
L 53.048733 182.91576 
L 54.116002 191.133552 
L 56.126804 201.244408 
L 58.172732 208.87167 
L 60.637698 216.335475 
L 64.149705 225.091737 
L 65.795219 228.681799 
L 69.261481 235.478738 
L 73.124495 242.119026 
L 76.053569 246.64764 
L 80.27863 252.567586 
L 82.349667 255.245186 
L 86.958608 260.755906 
L 90.363554 264.479789 
L 95.633105 269.744957 
L 100.228373 273.904707 
L 104.127595 277.155628 
L 107.364582 279.677346 
L 114.069043 284.436564 
L 118.169394 287.064925 
L 121.901291 289.285519 
L 129.399499 293.288603 
L 137.567998 297.007805 
L 144.795603 299.785219 
L 153.099935 302.421977 
L 160.598849 304.321129 
L 167.73646 305.722232 
L 175.893082 306.85358 
L 186.043302 307.5788 
L 190.215207 307.660177 
L 198.169903 307.466817 
L 204.168105 307.017535 
L 210.61276 306.24091 
L 219.093289 304.746091 
L 225.657804 303.209592 
L 233.594711 300.89174 
L 236.883502 299.777965 
L 245.24478 296.520657 
L 252.393416 293.221987 
L 256.707901 290.985069 
L 262.98428 287.374666 
L 269.165017 283.371397 
L 275.223691 278.968751 
L 279.697396 275.379345 
L 283.922474 271.695134 
L 287.112612 268.704347 
L 294.527254 260.951431 
L 298.786857 255.899229 
L 303.067125 250.281815 
L 305.53013 246.758428 
L 309.632102 240.315989 
L 311.150315 237.716006 
L 314.840422 230.785964 
L 316.217291 227.931942 
L 319.104812 221.324679 
L 321.79109 214.151068 
L 323.38778 209.197977 
L 324.931521 203.67003 
L 326.550761 196.609374 
L 327.740726 189.860347 
L 328.722659 181.730365 
L 328.861797 180.091206 
L 329.235858 173.100405 
L 329.290805 169.2 
L 329.290805 169.2 
" style="fill:none;stroke:#000000;stroke-linecap:square;stroke-opacity:0.25;stroke-width:0.25;"/>
   </g>
   <g id="line2d_51">
    <path clip-path="url(#pe1d9b82124)" d="M 346.598498 169.2 
L 346.3401 160.231492 
L 346.043509 156.062562 
L 345.35085 149.524291 
L 343.982488 140.772126 
L 342.364835 133.130279 
L 341.470201 129.559588 
L 339.641243 123.166871 
L 336.700387 114.558719 
L 334.099061 108.062292 
L 330.409928 100.05311 
L 327.702221 94.837054 
L 325.058397 90.164603 
L 320.962792 83.588559 
L 316.334029 76.936204 
L 313.294003 72.937642 
L 307.168866 65.618385 
L 301.82442 59.9108 
L 295.284763 53.644374 
L 290.547451 49.532389 
L 285.812664 45.740664 
L 282.923836 43.571008 
L 278.488243 40.436818 
L 273.934617 37.45193 
L 270.305411 35.231363 
L 261.289779 30.277829 
L 258.29679 28.799905 
L 252.608544 26.205685 
L 244.343905 22.911802 
L 237.367772 20.545297 
L 233.143914 19.28828 
L 228.363607 18.020549 
L 222.639183 16.713337 
L 218.860918 15.973763 
L 210.210355 14.641187 
L 203.473545 13.944805 
L 199.572402 13.676334 
L 195.20856 13.492341 
L 190.188463 13.432087 
L 184.000466 13.580526 
L 176.120578 14.126767 
L 171.754525 14.603081 
L 166.723262 15.30733 
L 159.826125 16.547262 
L 152.879914 18.124192 
L 141.543815 21.4333 
L 132.36066 24.820378 
L 129.649843 25.948014 
L 120.654694 30.133172 
L 114.415781 33.461161 
L 111.346804 35.235112 
L 106.442411 38.269057 
L 102.525504 40.878144 
L 99.253836 43.192088 
L 95.606621 45.9251 
L 86.603354 53.437259 
L 81.053808 58.685739 
L 75.09882 64.938228 
L 69.925692 70.98402 
L 67.396634 74.181905 
L 63.539464 79.414927 
L 61.202206 82.823623 
L 57.786955 88.18274 
L 54.159997 94.463369 
L 51.568908 99.410274 
L 49.831192 102.991269 
L 46.186307 111.385924 
L 43.365749 119.0147 
L 40.893927 126.969122 
L 39.629206 131.748768 
L 38.335087 137.426137 
L 37.561994 141.393593 
L 36.748219 146.328971 
L 36.007054 152.049617 
L 35.505726 157.424985 
L 35.099602 165.689345 
L 35.063137 170.182933 
L 35.456701 180.309416 
L 35.834341 184.712128 
L 36.473779 190.138878 
L 37.233373 195.129801 
L 38.196761 200.302595 
L 39.130199 204.575782 
L 40.222963 208.971779 
L 43.607425 220.089906 
L 46.528429 227.862777 
L 49.397676 234.477548 
L 52.369932 240.565719 
L 55.10664 245.642278 
L 59.85649 253.521913 
L 64.437928 260.245498 
L 66.885694 263.550643 
L 71.142196 268.894825 
L 73.358655 271.497159 
L 77.127415 275.670381 
L 80.489498 279.150846 
L 85.457592 283.920806 
L 92.779013 290.238014 
L 100.38923 296.025285 
L 104.300045 298.725083 
L 110.90834 302.903772 
L 115.12377 305.334973 
L 121.0991 308.49019 
L 125.879763 310.782539 
L 134.890796 314.578612 
L 140.808014 316.719244 
L 149.805798 319.470184 
L 153.361862 320.396054 
L 164.478486 322.724231 
L 168.565326 323.369939 
L 178.3703 324.470175 
L 188.077974 324.944931 
L 194.09805 324.93493 
L 200.374848 324.676478 
L 206.078076 324.221054 
L 209.769187 323.813495 
L 219.197849 322.364215 
L 225.634944 321.030886 
L 233.369075 319.047983 
L 235.782457 318.341758 
L 243.786257 315.690991 
L 248.405232 313.937906 
L 254.449477 311.384817 
L 259.852493 308.841855 
L 264.609128 306.388138 
L 268.130854 304.435047 
L 273.018565 301.521474 
L 278.188804 298.166525 
L 281.703046 295.714859 
L 285.291251 293.058737 
L 291.828238 287.788622 
L 296.664916 283.492907 
L 303.571965 276.685521 
L 309.971173 269.5457 
L 313.003393 265.830927 
L 316.525922 261.202197 
L 322.108589 253.043859 
L 324.601688 249.005969 
L 327.624772 243.705323 
L 331.285291 236.551009 
L 332.758607 233.388127 
L 336.602528 224.101819 
L 338.276598 219.432835 
L 341.353251 209.282208 
L 343.423791 200.488406 
L 344.367697 195.46792 
L 345.769397 185.250215 
L 346.199685 180.339412 
L 346.598498 169.2 
L 346.598498 169.2 
" style="fill:none;stroke:#000000;stroke-linecap:square;stroke-opacity:0.25;stroke-width:0.25;"/>
   </g>
   <g id="line2d_52">
    <path clip-path="url(#pe1d9b82124)" d="M 17.752344 169.2 
L 363.90619 169.2 
L 363.90619 169.2 
" style="fill:none;stroke:#000000;stroke-linecap:square;stroke-opacity:0.25;stroke-width:0.25;"/>
   </g>
   <g id="line2d_53">
    <path clip-path="url(#pe1d9b82124)" d="M 17.752344 269.126008 
L 363.90619 69.273992 
L 363.90619 69.273992 
" style="fill:none;stroke:#000000;stroke-linecap:square;stroke-opacity:0.25;stroke-width:0.25;"/>
   </g>
   <g id="line2d_54">
    <path clip-path="url(#pe1d9b82124)" d="M 92.564251 339.4 
L 289.094283 -1 
L 289.094283 -1 
" style="fill:none;stroke:#000000;stroke-linecap:square;stroke-opacity:0.25;stroke-width:0.25;"/>
   </g>
   <g id="line2d_55">
    <path clip-path="url(#pe1d9b82124)" d="M 17.752344 69.273992 
L 363.90619 269.126008 
L 363.90619 269.126008 
" style="fill:none;stroke:#000000;stroke-linecap:square;stroke-opacity:0.25;stroke-width:0.25;"/>
   </g>
   <g id="line2d_56">
    <path clip-path="url(#pe1d9b82124)" d="M 92.564251 -1 
L 289.094283 339.4 
L 289.094283 339.4 
" style="fill:none;stroke:#000000;stroke-linecap:square;stroke-opacity:0.25;stroke-width:0.25;"/>
   </g>
   <g id="line2d_57">
    <path clip-path="url(#pe1d9b82124)" d="M 20.629267 339.4 
L 361.029267 -1 
L 361.029267 -1 
" style="fill:none;stroke:#000000;stroke-linecap:square;stroke-opacity:0.25;stroke-width:0.25;"/>
   </g>
   <g id="line2d_58">
    <path clip-path="url(#pe1d9b82124)" d="M 20.629267 -1 
L 361.029267 339.4 
L 361.029267 339.4 
" style="fill:none;stroke:#000000;stroke-linecap:square;stroke-opacity:0.25;stroke-width:0.25;"/>
   </g>
   <g id="line2d_59">
    <path clip-path="url(#pe1d9b82124)" d="M 17.752344 215.575822 
L 363.90619 122.824178 
L 363.90619 122.824178 
" style="fill:none;stroke:#000000;stroke-linecap:square;stroke-opacity:0.25;stroke-width:0.25;"/>
   </g>
   <g id="line2d_60">
    <path clip-path="url(#pe1d9b82124)" d="M 17.752344 122.824178 
L 363.90619 215.575822 
L 363.90619 215.575822 
" style="fill:none;stroke:#000000;stroke-linecap:square;stroke-opacity:0.25;stroke-width:0.25;"/>
   </g>
   <g id="line2d_61">
    <path clip-path="url(#pe1d9b82124)" d="M 145.224314 339.4 
L 236.434219 -1 
L 236.434219 -1 
" style="fill:none;stroke:#000000;stroke-linecap:square;stroke-opacity:0.25;stroke-width:0.25;"/>
   </g>
   <g id="line2d_62">
    <path clip-path="url(#pe1d9b82124)" d="M 145.224314 -1 
L 236.434219 339.4 
L 236.434219 339.4 
" style="fill:none;stroke:#000000;stroke-linecap:square;stroke-opacity:0.25;stroke-width:0.25;"/>
   </g>
   <g id="patch_3">
    <path d="M 190.829267 331.2 
L 190.829267 7.2 
" style="fill:none;stroke:#000000;stroke-linecap:square;stroke-linejoin:miter;stroke-width:0.8;"/>
   </g>
   <g id="patch_4">
    <path d="M 10.829267 169.2 
L 370.829267 169.2 
" style="fill:none;stroke:#000000;stroke-linecap:square;stroke-linejoin:miter;stroke-width:0.8;"/>
   </g>
  </g>
 </g>
 <defs>
  <clipPath id="pe1d9b82124">
   <rect height="324" width="360" x="10.829267" y="7.2"/>
  </clipPath>
 </defs>
</svg>
